<?xml version="1.0" encoding="UTF-8"?>
<svg id="Layer_1" data-name="Layer 1" xmlns="http://www.w3.org/2000/svg" viewBox="0 0 471.67 103.31">

  <path class="cls-1" d="M0,1.3h32.61c17.46,0,27.7,9.67,27.7,24.82,0,11.69-6.06,18.76-13.56,21.93v.29c9.96,3.18,16.88,10.82,16.88,24.67,0,17.32-10.68,29-30.01,29H0V1.3ZM27.99,40.55c6.21,0,9.96-3.9,9.96-10.24s-3.75-10.39-9.96-10.39h-4.62v20.63h4.62ZM29.14,82.97c6.93,0,10.82-4.33,10.82-11.98s-3.89-11.98-10.82-11.98h-5.77v23.95h5.77Z"/>
  <path class="cls-1" d="M71.42,1.3h44.58v21.35h-21.21v19.04h18.18v19.77h-18.18v19.19h21.64v21.35h-45.02V1.3Z"/>
  <path class="cls-1" d="M126.31,1.3h34.2c17.17,0,27.7,9.67,27.7,26.4,0,12.41-6.35,20.49-15.15,23.37v.29c9.81,2.45,15.01,9.81,15.01,23.23v27.41h-23.52v-26.84c0-9.96-2.89-13.71-9.67-13.71h-5.2v40.54h-23.37V1.3ZM155.16,41.12c6.21,0,9.81-4.04,9.81-10.82s-3.61-10.39-9.81-10.39h-5.48v21.21h5.48Z"/>
  <path class="cls-1" d="M198.45,1.3h34.2c17.17,0,27.7,9.67,27.7,26.4,0,12.41-6.35,20.49-15.15,23.37v.29c9.81,2.45,15.01,9.81,15.01,23.23v27.41h-23.52v-26.84c0-9.96-2.89-13.71-9.67-13.71h-5.2v40.54h-23.37V1.3ZM227.31,41.12c6.21,0,9.81-4.04,9.81-10.82s-3.61-10.39-9.81-10.39h-5.48v21.21h5.48Z"/>
  <path class="cls-1" d="M270.78,1.3h23.37v100.71h-23.37V1.3Z"/>
  <path class="cls-1" d="M301.74,51.66c0-31.17,20.78-51.37,50.64-51.37,4.62,0,9.67.58,14.57,1.59v25.4c-5.05-2.02-10.1-2.89-14.14-2.89-14.72,0-25.54,10.1-25.54,27.27s10.82,27.27,25.54,27.27c4.04,0,9.09-.87,14.14-2.89v25.4c-4.9,1.01-9.96,1.59-14.57,1.59-29.87,0-50.64-20.2-50.64-51.36Z"/>
  <path class="cls-1" d="M369.8,51.66c0-30.88,20.49-51.66,50.79-51.66s51.08,20.92,51.08,51.66-20.49,51.65-51.08,51.65-50.79-20.78-50.79-51.65ZM420.73,79.79c15.15,0,25.83-11.54,25.83-28.13s-10.53-28.14-25.83-28.14-25.68,11.54-25.68,28.14,10.39,28.13,25.68,28.13Z"/>
</svg>